# xmcd CD database file
#
# Track frame offsets:
#	150
#	39844
#	73666
#	97937
#	131624
#	166482
#	200520
#
# Disc length: 3250 seconds
#
# Revision: 0
# Processed by: cddbd v1.5.1PL0 Copyright (c) Steve Scherf et al.
# Submitted via: CDex 1.51
#
DISCID=580cb007
DTITLE=Dan Gibson's Solitudes -  Stress Free   - nature´s Spa
DYEAR=20001
DGENRE=New Age
TTITLE0=Dan Gibson's Solitudes - Free Your Mind - Dan Gibson's Solitudes
TTITLE1=Dan Gibson's Solitudes - Basking In The Sun - Dan Gibson's Solitudes
TTITLE2=Dan Gibson's Solitudes - Getaway - Dan Gibson's Solitudes
TTITLE3=Dan Gibson's Solitudes - Dreaming In Azure - Dan Gibson's Solitudes
TTITLE4=Dan Gibson's Solitudes - Infinite Peace - Dan Gibson's Solitudes
TTITLE5=Dan Gibson's Solitudes - The Isle Of Bliss - Dan Gibson's Solitudes
TTITLE6=Dan Gibson's Solitudes - Stress Free - Dan Gibson's Solitudes
EXTD=YEAR: 20001
EXTT0=
EXTT1=
EXTT2=
EXTT3=
EXTT4=
EXTT5=
EXTT6=
PLAYORDER=
